<?xml version="1.0" encoding="UTF-8"?>
<svg id="Layer_2" data-name="Layer 2" xmlns="http://www.w3.org/2000/svg" viewBox="0 0 214.17 222.78">
  <defs>
    <style>
      .cls-1 {
        fill: #fff;
      }

      .cls-1, .cls-2 {
        stroke-width: 0px;
      }

      .cls-2 {
        fill: #111;
      }
    </style>
  </defs>
  <g id="Layer_1-2" data-name="Layer 1">
    <g>
      <rect class="cls-1" width="214.17" height="222.78" rx="16.66" ry="16.66"/>
      <path class="cls-2" d="M34.19,50.08v40.07c-1.55,4.37-4.87,20.65-1.62,36.4,3.31,16.03,11.75,27.85,14.18,30.91,0-1.65,0-3.87,0-5.52.01-36.29.16-132.72,0-139.81,14.35,19.2,18.73,25.58,23.18,31.29,19.35,24.79,39.07,49.29,58.66,73.89,1.43,1.79,2.94,3.52,5.31,6.36.26-2.58.51-3.9.5-5.22-.11-25.3-.24-78.43-.24-78.43-10.94-4.35-21.39-4.94-27.15-4.99V15.63c32.43-.32,69.11,18.98,86.44,55.81,18.27,38.82,6.98,79.73-16.94,104.96.02-2.43.05-30.88.02-34.6,4.99-13.67,9.09-27.75,4.22-47.72-4.92-20.17-16.18-32.25-16.78-32.82v149.38c-28.48-37.07-57.37-74.55-86.53-112.51,0,2.45.17,53.1.02,77.07-.01,1.97-.02,6.11-.02,6.11,0,0,6.88,2.99,14.06,4.39,6.57,1.28,11.38,1.47,15.58,1.47l-.07,18.86c-16.7-.1-32.96-3.87-49.61-13.93-17.65-10.66-31.62-27.77-39.46-47.43-13.42-33.63-4.11-70.94,16.24-94.6Z"/>
    </g>
  </g>
</svg>