<?xml version="1.0" encoding="UTF-8"?>
<svg id="Layer_1" data-name="Layer 1" xmlns="http://www.w3.org/2000/svg" viewBox="0 0 512.7 125.1">
  <defs>
    <style>
      .cls-1 {
        fill: none;
        stroke: #231f20;
        stroke-miterlimit: 10;
      }
    </style>
  </defs>
  <path class="cls-1" d="M13.65,123.49L.56,1.61h23.82l6.72,76.94L37.95,1.61h22.72l6.51,76.94L73.69,1.61h24.1l-13.3,121.89h-29.23l-6.09-58.66-5.82,58.66H13.65Z"/>
  <path class="cls-1" d="M105.06,123.49V1.61h48.75v23.55h-23.96v23.75h22.99v22.92h-22.99v27.91h25.55v23.75h-50.35Z"/>
  <path class="cls-1" d="M163.44,123.49V1.61h24.38v101.11h25.07v20.78h-49.45Z"/>
  <path class="cls-1" d="M248.21,124.6c-8.82,0-15.92-2.75-21.3-8.24-5.38-5.49-8.07-13.18-8.07-23.06v-56.23c0-11.82,2.34-20.87,7.03-27.15,4.68-6.28,12.31-9.42,22.89-9.42,5.77,0,10.91,1.06,15.41,3.19,4.5,2.12,8.04,5.3,10.63,9.52,2.58,4.22,3.88,9.55,3.88,15.96v21.05h-24.24v-18.01c0-3.65-.46-6.11-1.38-7.38-.92-1.27-2.35-1.9-4.29-1.9-2.26,0-3.79.82-4.57,2.46-.79,1.64-1.18,3.82-1.18,6.54v61.01c0,3.37.5,5.75,1.49,7.13.99,1.39,2.41,2.08,4.26,2.08,2.08,0,3.54-.85,4.4-2.56s1.28-3.92,1.28-6.65v-21.95h24.52v23.06c0,10.71-2.7,18.48-8.1,23.3-5.4,4.83-12.95,7.24-22.65,7.24Z"/>
  <path class="cls-1" d="M316.14,124.6c-9.74,0-17.19-2.94-22.33-8.83-5.15-5.89-7.72-14.39-7.72-25.52v-57.9c0-10.43,2.55-18.35,7.65-23.75,5.1-5.4,12.57-8.1,22.4-8.1s17.3,2.7,22.4,8.1c5.1,5.4,7.65,13.32,7.65,23.75v57.9c0,11.13-2.57,19.63-7.72,25.52-5.15,5.89-12.59,8.83-22.33,8.83ZM316.35,102.16c3.69,0,5.54-3.58,5.54-10.73V31.94c0-6-1.8-9-5.4-9-4.06,0-6.09,3.07-6.09,9.21v59.42c0,3.79.46,6.5,1.38,8.14.92,1.64,2.45,2.46,4.57,2.46Z"/>
  <path class="cls-1" d="M356.03,123.49V1.61h37.12l10.25,74.31L413.58,1.61h37.47v121.89h-22.3V35.68l-13.99,87.81h-21.88l-14.82-87.81v87.81h-22.02Z"/>
  <path class="cls-1" d="M461.85,123.49V1.61h48.75v23.55h-23.96v23.75h22.99v22.92h-22.99v27.91h25.55v23.75h-50.35Z"/>
</svg>